<svg width="64" height="64" version="1.1" viewBox="0 0 16.9 16.9" xmlns="http://www.w3.org/2000/svg">
 <g stroke-linecap="round" stroke-linejoin="round">
  <rect x="-1.39e-17" width="16.9" height="16.9" ry="3.16" fill="#f5f5f5" stroke-width=".0128"/>
  <path d="m16.9 5.74-.692 1.56a.346.346 0 01-.281.202l-2.34.248 1.75 1.58a.346.346 0 01.108.329l-.488 2.3 1.95-1.12v-5.09z" fill="#fc0" stroke-width=".0128"/>
  <path d="m16.9 4.09a.346.346 0 00-.0496.0656l-1.19 2.68-2.92.308a.346.346 0 00-.195.602l2.18 1.96-.608 2.87a.346.346 0 00.254.408.346.346 0 00.258-.0367l2.27-1.31v-.799l-1.95 1.12.488-2.3a.346.346 0 00-.108-.329l-1.75-1.58 2.34-.248a.346.346 0 00.281-.202l.692-1.56v-1.65z" fill="#fff" stroke-width=".0128"/>
  <path d="m0 4.89v6.34l2.45 1.41-.65-3.06 2.33-2.1-3.11-.328-1.01-2.26z" fill="#fc0" stroke-width=".0128"/>
  <path d="m0 4.09v1.66l.693 1.55a.346.346 0 00.279.202l2.34.248-1.75 1.58a.346.346 0 00-.106.329l.489 2.3-1.95-1.12v.8l2.27 1.31a.346.346 0 00.512-.371l-.608-2.87 2.18-1.96a.346.346 0 00-.195-.602l-2.91-.308-1.19-2.68a.346.346 0 00-.0506-.0667z" fill="#fff" stroke-width=".0128"/>
  <g transform="matrix(-.892 0 0 -.892 1.65 1.21)">
   <path d="m-7.64-3.46-1.43-3.21-3.49-.368 2.61-2.35-.728-3.43 3.04 1.75 3.04-1.75-.728 3.43 2.61 2.35-3.49.368z" color="#000000" fill="#fc0" style="-inkscape-stroke:none"/>
   <path d="m-4.51-13.2a.388.388 0 00-.287.041l-2.85 1.64-2.85-1.64a.388.388 0 00-.574.416l.682 3.21-2.44 2.2a.388.388 0 00.221.674l3.27.346 1.34 3a.388.388 0 00.709 0l1.34-3 3.27-.346a.388.388 0 00.219-.674l-2.44-2.2.682-3.21a.388.388 0 00-.285-.457zm-5.61 1.15 2.29 1.32a.388.388 0 00.389 0l2.29-1.32-.547 2.58a.388.388 0 00.119.369l1.96 1.77-2.62.277a.388.388 0 00-.314.227l-1.07 2.41-1.07-2.41a.388.388 0 00-.314-.227l-2.62-.277 1.96-1.77a.388.388 0 00.121-.369z" color="#000000" fill="#fff" style="-inkscape-stroke:none"/>
  </g>
 </g>
</svg>
